<svg width="18" height="18" viewBox="0 0 18 18" fill="none" xmlns="http://www.w3.org/2000/svg">
<path d="M16.5 12.69V14.9399C16.5009 15.1488 16.4581 15.3556 16.3744 15.547C16.2907 15.7383 16.168 15.9101 16.0141 16.0513C15.8602 16.1926 15.6784 16.3001 15.4806 16.367C15.2827 16.4339 15.073 16.4588 14.865 16.4399C12.5571 16.1892 10.3403 15.4006 8.39251 14.1375C6.58038 12.9859 5.04401 11.4496 3.89251 9.63745C2.62499 7.68085 1.83619 5.4532 1.59001 3.13495C1.57127 2.92755 1.59592 2.71852 1.66239 2.52117C1.72886 2.32382 1.83569 2.14247 1.97609 1.98867C2.11648 1.83487 2.28736 1.71198 2.47785 1.62784C2.66834 1.5437 2.87427 1.50015 3.08251 1.49995H5.33251C5.69649 1.49637 6.04935 1.62526 6.32533 1.8626C6.60131 2.09994 6.78157 2.42954 6.83251 2.78995C6.92748 3.51 7.1036 4.217 7.35751 4.89745C7.45842 5.16589 7.48026 5.45764 7.42044 5.73811C7.36062 6.01858 7.22166 6.27603 7.02001 6.47995L6.06751 7.43245C7.13518 9.31011 8.68985 10.8648 10.5675 11.9324L11.52 10.98C11.7239 10.7783 11.9814 10.6393 12.2618 10.5795C12.5423 10.5197 12.8341 10.5415 13.1025 10.6424C13.783 10.8964 14.49 11.0725 15.21 11.1675C15.5743 11.2188 15.9071 11.4024 16.1449 11.6831C16.3828 11.9638 16.5091 12.3221 16.5 12.69Z" stroke="white" stroke-width="2" stroke-linecap="round" stroke-linejoin="round"/>
</svg>
